<svg width="174" height="43" viewBox="0 0 174 43" fill="none" xmlns="http://www.w3.org/2000/svg">
<path fill-rule="evenodd" clip-rule="evenodd" d="M18.9333 0.700195C11.9815 0.700194 5.90533 4.44723 2.61341 10.0293L2.13911 10.8335H13.3861L13.5142 10.7551C15.092 9.78994 16.9469 9.23353 18.9333 9.23353C23.8508 9.23353 27.9719 12.6469 29.0552 17.2335L0.144552 17.2335L0.0962042 17.7134C0.0325741 18.345 0 18.9855 0 19.6335V23.3668C-1.39872e-06 33.8234 8.47674 42.3002 18.9333 42.3002C29.3899 42.3002 37.8667 33.8235 37.8667 23.3669L37.8667 19.6335C37.8667 9.17694 29.3899 0.700198 18.9333 0.700195ZM13.0876 9.76686H4.03574C7.23614 4.94443 12.7139 1.76686 18.9333 1.76686C28.8008 1.76686 36.8 9.76604 36.8 19.6335L36.8 23.3669C36.8 33.2344 28.8008 41.2335 18.9333 41.2335C9.06584 41.2335 1.06667 33.2343 1.06667 23.3668V19.6335C1.06667 19.1849 1.08319 18.7403 1.11564 18.3002L30.3409 18.3002L30.2336 17.6765C29.3045 12.2758 24.5993 8.16686 18.9333 8.16686C16.7992 8.16686 14.7997 8.75039 13.0876 9.76686ZM30.2336 25.324L30.3409 24.7002L7.52581 24.7002L7.63311 25.3239C8.56215 30.7246 13.2674 34.8335 18.9333 34.8335C24.5993 34.8335 29.3045 30.7246 30.2336 25.324ZM18.9333 33.7669C14.0159 33.7669 9.89474 30.3535 8.81151 25.7669L29.0552 25.7669C27.9719 30.3535 23.8508 33.7669 18.9333 33.7669ZM82.1333 19.6335C82.1333 9.17694 90.6101 0.700197 101.067 0.700199C111.523 0.700202 120 9.17694 120 19.6335V23.3669C120 33.8235 111.523 42.3002 101.067 42.3002C90.6101 42.3002 82.1333 33.8234 82.1333 23.3669V19.6335ZM101.067 1.76687C91.1992 1.76686 83.2 9.76604 83.2 19.6335V23.3669C83.2 33.2343 91.1992 41.2335 101.067 41.2335C110.934 41.2335 118.933 33.2344 118.933 23.3669V19.6335C118.933 9.76605 110.934 1.76687 101.067 1.76687ZM101.067 9.23353C95.3229 9.23353 90.6667 13.8898 90.6667 19.6335V23.3669C90.6667 29.1106 95.3229 33.7669 101.067 33.7669C106.81 33.7669 111.467 29.1106 111.467 23.3669V19.6335C111.467 13.8898 106.81 9.23353 101.067 9.23353ZM89.6 19.6335C89.6 13.3007 94.7338 8.16687 101.067 8.16687C107.4 8.16687 112.533 13.3007 112.533 19.6335V23.3669C112.533 29.6997 107.4 34.8335 101.067 34.8335C94.7338 34.8335 89.6 29.6997 89.6 23.3669V19.6335ZM60 3.1002C56.0263 3.10019 52.357 4.39682 49.39 6.59023L48.9611 6.90728L48.327 6.04955L48.7559 5.7325C51.9002 3.40801 55.7904 2.03353 60 2.03353C70.4566 2.03353 78.9333 10.5103 78.9333 20.9669L78.9333 40.9669H70.4V20.9669C70.4 15.2231 65.7438 10.5669 60 10.5669C54.3781 10.5669 49.7979 15.0278 49.6063 20.6027L49.6063 40.9665L41.0667 40.9672L41.0667 20.9669C41.0667 20.8004 41.0688 20.6344 41.0731 20.469L41.0869 19.9358L42.1532 19.9633L42.1394 20.4965C42.1354 20.6528 42.1333 20.8096 42.1333 20.9669L42.1333 39.9002L48.5396 39.9002L48.5396 20.5847L48.5399 20.5758C48.7463 14.4238 53.798 9.50019 60 9.50019C66.3329 9.5002 71.4667 14.634 71.4667 20.9669V39.9002H77.8667L77.8667 20.9669C77.8667 11.0994 69.8675 3.1002 60 3.1002Z" fill="url(#paint0_linear_41_2532)"/>
<path d="M136.675 39.1498H134.057L133.683 40.7998H132.165L134.002 33.0998H136.73L138.567 40.7998H137.049L136.675 39.1498ZM134.365 37.7638H136.356L135.465 33.8258H135.267L134.365 37.7638ZM139.637 33.0998H141.089V39.4138H144.587V40.7998H139.637V33.0998ZM147.715 37.8958V40.7998H146.263V33.0998H149.277C149.673 33.0998 150.017 33.1658 150.311 33.2978C150.604 33.4225 150.846 33.5911 151.037 33.8038C151.235 34.0091 151.381 34.2475 151.477 34.5188C151.579 34.7828 151.631 35.0541 151.631 35.3328V35.5968C151.631 35.8828 151.579 36.1651 151.477 36.4438C151.381 36.7151 151.235 36.9608 151.037 37.1808C150.846 37.3935 150.604 37.5658 150.311 37.6978C150.017 37.8298 149.673 37.8958 149.277 37.8958H147.715ZM147.715 36.5098H149.134C149.456 36.5098 149.709 36.4218 149.893 36.2458C150.083 36.0698 150.179 35.8425 150.179 35.5638V35.4318C150.179 35.1531 150.083 34.9258 149.893 34.7498C149.709 34.5738 149.456 34.4858 149.134 34.4858H147.715V36.5098ZM152.877 33.0998H154.329V36.2458H156.815V33.0998H158.267V40.7998H156.815V37.6318H154.329V40.7998H152.877V33.0998ZM163.616 39.1498H160.998L160.624 40.7998H159.106L160.943 33.0998H163.671L165.508 40.7998H163.99L163.616 39.1498ZM161.306 37.7638H163.297L162.406 33.8258H162.208L161.306 37.7638Z" fill="#B2B4C2"/>
<defs>
<linearGradient id="paint0_linear_41_2532" x1="18.9333" y1="1.23353" x2="18.9333" y2="41.7669" gradientUnits="userSpaceOnUse">
<stop stop-color="#F19CFF"/>
<stop offset="0.479167" stop-color="#34C5F4"/>
<stop offset="1" stop-color="#3A4CEC"/>
</linearGradient>
</defs>
</svg>
