<svg width="225" height="78" viewBox="0 0 225 78" fill="none" xmlns="http://www.w3.org/2000/svg">
<path fill-rule="evenodd" clip-rule="evenodd" d="M35.5 0C22.4652 -2.86102e-06 11.0725 7.02568 4.90014 17.492L4.01084 19H25.0989L25.3391 18.853C28.2975 17.0433 31.7754 16 35.5 16C44.7202 16 52.4474 22.4 54.4784 31L0.271035 31L0.180383 31.8998C0.0610763 33.0839 0 34.285 0 35.5V42.5C-2.6226e-06 62.1061 15.8939 78 35.5 78C55.1061 78 71 62.1061 71 42.5L71 35.5C71 15.8939 55.1061 4.29154e-06 35.5 0ZM24.5393 17H7.56701C13.5678 7.95794 23.8386 2 35.5 2C54.0015 2 69 16.9985 69 35.5L69 42.5C69 61.0015 54.0015 76 35.5 76C16.9985 76 2 61.0015 2 42.5V35.5C2 34.6589 2.03098 33.8252 2.09183 33L56.8891 33L56.6879 31.8305C54.946 21.7043 46.1237 14 35.5 14C31.4984 14 27.7495 15.0941 24.5393 17ZM56.6879 46.1696L56.8891 45L14.1109 45L14.3121 46.1695C16.054 56.2957 24.8763 64 35.5 64C46.1237 64 54.946 56.2957 56.6879 46.1696ZM35.5 62C26.2798 62 18.5526 55.6 16.5216 47L54.4784 47C52.4474 55.6 44.7202 62 35.5 62ZM154 35.5C154 15.8939 169.894 3.47939e-06 189.5 7.77144e-06C209.106 1.20635e-05 225 15.8939 225 35.5V42.5C225 62.1061 209.106 78 189.5 78C169.894 78 154 62.1061 154 42.5V35.5ZM189.5 2.00001C170.998 2 156 16.9985 156 35.5V42.5C156 61.0015 170.998 76 189.5 76C208.002 76 223 61.0016 223 42.5V35.5C223 16.9985 208.002 2.00001 189.5 2.00001ZM189.5 16C178.73 16 170 24.7305 170 35.5V42.5C170 53.2696 178.73 62 189.5 62C200.27 62 209 53.2696 209 42.5V35.5C209 24.7305 200.27 16 189.5 16ZM168 35.5C168 23.6259 177.626 14 189.5 14C201.374 14 211 23.6259 211 35.5V42.5C211 54.3741 201.374 64 189.5 64C177.626 64 168 54.3741 168 42.5V35.5ZM112.5 4.5C105.049 4.5 98.1693 6.93117 92.6062 11.0438L91.8021 11.6383L90.6131 10.03L91.4173 9.43558C97.3129 5.07715 104.607 2.5 112.5 2.5C132.106 2.5 148 18.3939 148 38L148 75.5H132V38C132 27.2305 123.27 18.5 112.5 18.5C101.959 18.5 93.3711 26.8642 93.0117 37.3172L93.0117 75.4994L77 75.5006L77 38C77 37.6879 77.004 37.3767 77.012 37.0664L77.0379 36.0668L79.0372 36.1184L79.0114 37.1181C79.0038 37.4111 79 37.7051 79 38L79 73.5L91.0117 73.5L91.0117 37.2834L91.0123 37.2667C91.3992 25.7317 100.871 16.5 112.5 16.5C124.374 16.5 134 26.1259 134 38V73.5H146L146 38C146 19.4985 131.002 4.5 112.5 4.5Z" fill="url(#paint0_linear)"/>
<defs>
<linearGradient id="paint0_linear" x1="35.5" y1="1" x2="35.5" y2="77" gradientUnits="userSpaceOnUse">
<stop stop-color="#F19CFF"/>
<stop offset="0.479167" stop-color="#34C5F4"/>
<stop offset="1" stop-color="#3A4CEC"/>
</linearGradient>
</defs>
</svg>
