<svg width="65" height="65" viewBox="0 0 65 65" fill="none" xmlns="http://www.w3.org/2000/svg">
<path d="M32.5 65C50.4493 65 65 50.4493 65 32.5C65 14.5507 50.4493 0 32.5 0C14.5507 0 0 14.5507 0 32.5C0 50.4493 14.5507 65 32.5 65Z" fill="url(#paint0_linear)"/>
<path d="M55.9999 32.6966H50.2896C50.2896 20.7136 40.823 11 29.1444 11C17.6105 11 8.23324 20.4758 8.00373 32.2536C7.7663 44.4281 18.8979 55 30.7645 55H32.2572C42.719 55 56.7411 46.5968 58.932 36.358C59.3365 34.4707 57.8836 32.6966 55.9999 32.6966ZM20.6586 33.2305C20.6586 34.8329 19.3813 36.1436 17.8196 36.1436C16.2578 36.1436 14.9805 34.8323 14.9805 33.2305V28.5179C14.9805 26.9155 16.2578 25.6048 17.8196 25.6048C19.3813 25.6048 20.6586 26.9155 20.6586 28.5179V33.2305ZM30.5168 33.2305C30.5168 34.8329 29.2396 36.1436 27.678 36.1436C26.1161 36.1436 24.8389 34.8323 24.8389 33.2305V28.5179C24.8389 26.9155 26.1167 25.6048 27.678 25.6048C29.2396 25.6048 30.5168 26.9155 30.5168 28.5179V33.2305Z" fill="url(#paint1_linear)"/>
<defs>
<linearGradient id="paint0_linear" x1="32.5" y1="0" x2="32.5" y2="65" gradientUnits="userSpaceOnUse">
<stop stop-color="#534BB1"/>
<stop offset="1" stop-color="#551BF9"/>
</linearGradient>
<linearGradient id="paint1_linear" x1="33.4999" y1="11" x2="33.4999" y2="55" gradientUnits="userSpaceOnUse">
<stop stop-color="white"/>
<stop offset="1" stop-color="white" stop-opacity="0.82"/>
</linearGradient>
</defs>
</svg>
