<svg width="26" height="26" viewBox="0 0 26 26" fill="none" xmlns="http://www.w3.org/2000/svg">
<path d="M13 25.75C20.0416 25.75 25.75 20.0416 25.75 13C25.75 5.95837 20.0416 0.25 13 0.25C5.95837 0.25 0.25 5.95837 0.25 13C0.25 20.0416 5.95837 25.75 13 25.75Z" fill="white"
/>
<path d="M22.1277 13.1554H19.88C19.88 8.57489 16.1538 4.86182 11.5569 4.86182C7.01697 4.86182 3.32594 8.48399 3.2356 12.9861C3.14214 17.6398 7.52374 21.681 12.1946 21.681H12.7822C16.9001 21.681 22.4195 18.4688 23.2818 14.555C23.441 13.8336 22.8692 13.1554 22.1277 13.1554ZM8.21678 13.3595C8.21678 13.972 7.714 14.473 7.09928 14.473C6.48455 14.473 5.98179 13.9718 5.98179 13.3595V11.5581C5.98179 10.9456 6.48455 10.4446 7.09928 10.4446C7.714 10.4446 8.21678 10.9456 8.21678 11.5581V13.3595ZM12.0971 13.3595C12.0971 13.972 11.5944 14.473 10.9797 14.473C10.3649 14.473 9.86221 13.9718 9.86221 13.3595V11.5581C9.86221 10.9456 10.3652 10.4446 10.9797 10.4446C11.5944 10.4446 12.0971 10.9456 12.0971 11.5581V13.3595Z" fill="rgba(40, 40, 40, 1)"/>
<defs>
<linearGradient id="paint0_linear" x1="13" y1="0.25" x2="13" y2="25.75" gradientUnits="userSpaceOnUse">
<stop stop-color="white"/>
<stop offset="1" stop-color="white"/>
</linearGradient>
</defs>
</svg>