<svg width="301" height="326" viewBox="0 0 301 326" fill="none" xmlns="http://www.w3.org/2000/svg">
<path fill-rule="evenodd" clip-rule="evenodd" d="M21.4192 73.4069C47.4995 29.7971 95.6379 0.523426 150.714 0.523438C233.557 0.523455 300.714 66.748 300.714 148.44L300.714 177.607C300.714 259.299 233.557 325.523 150.714 325.523C67.8716 325.523 0.714344 259.299 0.714355 177.607V148.44C0.714355 143.378 0.972425 138.373 1.47654 133.439L1.85957 129.69L230.905 129.69C222.323 93.8569 189.673 67.1901 150.714 67.1901C134.977 67.1901 120.281 71.5371 107.781 79.0778L106.766 79.6901H17.6615L21.4192 73.4069ZM32.6876 71.3568H104.401C117.966 63.4156 133.806 58.8568 150.714 58.8568C195.603 58.8568 232.881 90.9581 240.241 133.15L241.091 138.024L9.55308 138.023C9.29595 141.462 9.16506 144.936 9.16506 148.44V177.607C9.16505 254.697 72.5388 317.19 150.714 317.19C228.89 317.19 292.264 254.697 292.264 177.607L292.264 148.44C292.264 71.3504 228.89 8.85679 150.714 8.85677C101.441 8.85676 58.0429 33.6815 32.6876 71.3568ZM60.3378 188.023L241.091 188.024L240.241 192.897C232.88 235.089 195.603 267.19 150.714 267.19C105.825 267.19 68.5483 235.089 61.1879 192.897L60.3378 188.023ZM70.5238 196.357C79.1058 232.19 111.756 258.857 150.714 258.857C189.673 258.857 222.323 232.19 230.905 196.357L70.5238 196.357Z" fill="url(#paint0_linear)"/>
<defs>
<linearGradient id="paint0_linear" x1="150.714" y1="4.69011" x2="150.714" y2="321.357" gradientUnits="userSpaceOnUse">
<stop stop-color="#F19CFF"/>
<stop offset="0.479167" stop-color="#34C5F4"/>
<stop offset="1" stop-color="#3A4CEC"/>
</linearGradient>
</defs>
</svg>
